<svg xmlns="http://www.w3.org/2000/svg" viewBox="-65.65 -78.06 214.21 89.22" role="img" aria-label="rotli" fill="#3A3028">
  <path fill-rule="evenodd" transform="translate(-55.89 -64.08) scale(0.03933)" d="M340 56.88C313.5 62.71 297.97 76.28 285.9 104.1C271.68 136.9 265.69 193.8 271.6 239.91C282.04 321.13 307.33 375.95 360.86 433.33C380.13 453.98 380.21 454.73 367 493C349.62 543.38 341.83 579.7 337.31 631.5C335.71 649.92 335.56 673.31 335.54 927.5C335.51 1203.5 335.51 1203.5 338.29 1221.5C347.45 1280.79 361.65 1321.44 386.26 1358.82C394.28 1371 397.39 1374.6 414.58 1391.62C433.92 1410.76 435.88 1413.38 434.59 1418.49C432.9 1425.23 421.32 1426.16 395.63 1421.61C287.38 1402.43 205.76 1348.45 136.19 1250.03C117.57 1223.69 106.89 1215.54 91 1215.54C63.73 1215.54 50.7 1240.04 54.9 1283.5C59.8 1334.49 77.48 1384.34 108.7 1435.22C152.9 1507.27 237.5 1568.79 325.8 1593.09C423.31 1619.92 470.95 1628.93 566.57 1596.01C646.27 1568.57 692.38 1507.51 706.64 1410.5C708.28 1399.3 708.44 1376.75 708.99 1068.5C709.63 702.82 709 739.09 715.56 691C724.9 622.4 754.36 558.79 796.21 516.82C840.73 472.17 895.24 447.61 964.5 440.97C1029.77 434.72 1078.59 415.28 1113.87 381.51C1170.37 327.43 1188.34 215.49 1151.61 146.44C1135.28 115.74 1103.37 94.02 1066.5 88.49C1041.18 84.69 877.04 83.86 850 87.39C750.1 100.42 665.78 134.19 593.11 190.26C579.14 201.03 575.58 202.97 569.7 202.99C560.5 203.01 557.4 200.03 544.45 178.61C531.27 156.83 524.55 148.35 505.1 128.96C463.34 87.34 430.08 67.02 388.87 57.92C375.12 54.88 351.37 54.38 340 56.88Z"/>
  <path d="M52.80-23.70Q52.80-16 49.80-10.35Q46.80-4.70 41.35-1.65Q35.90 1.40 28.50 1.40Q21.10 1.40 15.60-1.65Q10.10-4.70 7.05-10.30Q4-15.90 4-23.70Q4-31.40 7.10-37Q10.20-42.60 15.70-45.65Q21.20-48.70 28.50-48.70Q35.80-48.70 41.25-45.65Q46.70-42.60 49.75-36.95Q52.80-31.30 52.80-23.70M28.50-38.90Q23-38.90 19.85-34.90Q16.70-30.90 16.70-23.70Q16.70-16.30 19.80-12.35Q22.90-8.40 28.50-8.40Q34-8.40 37.10-12.40Q40.20-16.40 40.20-23.70Q40.20-30.80 37.10-34.85Q34-38.90 28.50-38.90M62.40-13.70L62.40-26.40L74.70-26.40L74.70-14.60Q74.70-11.30 76.65-9.90Q78.60-8.50 82.20-8.50Q83.80-8.50 85.65-8.90Q87.50-9.30 88.80-9.90Q89.50-9.10 90.10-8Q90.70-6.90 90.70-5.30Q90.70-2.40 87.95-0.50Q85.20 1.40 79.40 1.40Q71.50 1.40 66.95-2.15Q62.40-5.70 62.40-13.70M86.50-36.60L69.90-36.60L69.90-46.30L89.50-46.30Q89.90-45.60 90.35-44.30Q90.80-43 90.80-41.60Q90.80-39.10 89.60-37.85Q88.40-36.60 86.50-36.60M74.70-54.90L74.70-23.70L62.40-23.70L62.40-59.70Q63.20-60 64.75-60.30Q66.30-60.60 68-60.60Q71.50-60.60 73.10-59.35Q74.70-58.10 74.70-54.90M100.40-5.10L100.40-26.40L112.70-25.80L112.70-0.20Q111.90 0.10 110.40 0.35Q108.90 0.60 107.10 0.60Q103.70 0.60 102.05-0.65Q100.40-1.90 100.40-5.10M112.70-60.10L112.70-19.50L100.40-20.10L100.40-65Q101.10-65.20 102.65-65.50Q104.20-65.80 105.90-65.80Q109.50-65.80 111.10-64.55Q112.70-63.30 112.70-60.10M124.50-61.40Q124.50-64.30 126.55-66.30Q128.60-68.30 131.70-68.30Q134.90-68.30 136.85-66.30Q138.80-64.30 138.80-61.40Q138.80-58.60 136.85-56.55Q134.90-54.50 131.70-54.50Q128.60-54.50 126.55-56.55Q124.50-58.60 124.50-61.40M125.50-5.10L125.50-26.40L137.90-26.40L137.90-0.20Q137.10 0.10 135.60 0.35Q134.10 0.60 132.30 0.60Q128.90 0.60 127.20-0.65Q125.50-1.90 125.50-5.10M137.90-41.90L137.90-20.10L125.50-20.10L125.50-46.90Q126.30-47.20 127.85-47.45Q129.40-47.70 131.20-47.70Q134.70-47.70 136.30-46.45Q137.90-45.20 137.90-41.90"/>
</svg>
